<svg xmlns="http://www.w3.org/2000/svg" width="209" height="64" viewBox="0 0 209 64">
  <g id="Gruppe_692" data-name="Gruppe 692" transform="translate(1066 12347)">
    <g id="Gruppe_690" data-name="Gruppe 690">
      <rect id="Rechteck_2575" data-name="Rechteck 2575" width="209" height="64" rx="8" transform="translate(-1066 -12347)" fill="#191919"/>
      <text id="Google_Play" data-name="Google Play" transform="translate(-1013 -12297)" fill="#fff" font-size="30" font-family="TeleNeo-Bold, TeleNeo" font-weight="700" letter-spacing="-0.015em"><tspan x="0" y="0">Google Play</tspan></text>
      <text id="Get_it_on" data-name="Get it on" transform="translate(-1013 -12323)" fill="#fff" font-size="14" font-family="TeleNeo-Regular, TeleNeo"><tspan x="0" y="0">Get it on</tspan></text>
      <g id="Gruppe_687" data-name="Gruppe 687" transform="translate(-6.292 -0.494)">
        <path id="path37" d="M27.622,25.9,13.428,40.965s0,.006,0,.009a3.837,3.837,0,0,0,5.648,2.312l.045-.027L35.1,34.04,27.623,25.9" transform="translate(-1061.004 -12341.174)" fill="#eb3131"/>
        <path id="path39" d="M41.983,23.334l-.014-.009-6.9-4L27.3,26.241l7.8,7.8L41.96,30.08a3.837,3.837,0,0,0,.023-6.746" transform="translate(-1061.004 -12341.174)" fill="#f6b60b"/>
        <path id="path41" d="M13.426,12.37a3.758,3.758,0,0,0-.13.987V39.98a3.706,3.706,0,0,0,.131.986L28.111,26.284,13.427,12.37" transform="translate(-1061.004 -12341.174)" fill="#5778c5"/>
        <path id="path43" d="M27.727,26.668l7.347-7.345-15.96-9.253a3.841,3.841,0,0,0-5.687,2.3.011.011,0,0,0,0,0l14.3,14.3" transform="translate(-1061.004 -12341.174)" fill="#3bad49"/>
      </g>
    </g>
  </g>
</svg>
