<svg xmlns="http://www.w3.org/2000/svg" width="189" height="64" viewBox="0 0 189 64">
  <g id="Gruppe_688" data-name="Gruppe 688" transform="translate(1607 12347)">
    <rect id="Rechteck_2573" data-name="Rechteck 2573" width="189" height="64" rx="8" transform="translate(-1607 -12347)" fill="#191919"/>
    <text id="App_Store" data-name="App Store" transform="translate(-1550 -12297)" fill="#fff" font-size="30" font-family="TeleNeo-Bold, TeleNeo" font-weight="700" letter-spacing="-0.015em"><tspan x="0" y="0">App Store</tspan></text>
    <text id="Download_on_the" data-name="Download on the" transform="translate(-1550 -12323)" fill="#fff" font-size="14" font-family="TeleNeo-Regular, TeleNeo"><tspan x="0" y="0">Download on the</tspan></text>
    <path id="path4" d="M29.095,27.495a19.181,19.181,0,0,1-1.9,3.41,17.327,17.327,0,0,1-2.443,2.953,4.74,4.74,0,0,1-3.14,1.383,7.871,7.871,0,0,1-2.9-.693,8.323,8.323,0,0,0-3.123-.69,8.606,8.606,0,0,0-3.211.69,8.64,8.64,0,0,1-2.775.73,4.463,4.463,0,0,1-3.211-1.42A18.2,18.2,0,0,1,3.837,30.8a21.146,21.146,0,0,1-2.7-5.368A19.656,19.656,0,0,1,0,19.035a11.684,11.684,0,0,1,1.534-6.113,9,9,0,0,1,3.213-3.25A8.644,8.644,0,0,1,9.092,8.446a10.229,10.229,0,0,1,3.36.782,10.8,10.8,0,0,0,2.665.784,15.947,15.947,0,0,0,2.955-.923,9.768,9.768,0,0,1,4.017-.713,8.529,8.529,0,0,1,6.681,3.518,7.432,7.432,0,0,0-3.942,6.751,7.448,7.448,0,0,0,2.446,5.612,8.037,8.037,0,0,0,2.443,1.6q-.294.853-.623,1.635ZM22.287.706a7.526,7.526,0,0,1-1.929,4.937C18.807,7.456,16.932,8.5,14.9,8.338a5.493,5.493,0,0,1-.041-.669A7.733,7.733,0,0,1,16.9,2.681,7.881,7.881,0,0,1,19.4.808,7.435,7.435,0,0,1,22.25,0a6.412,6.412,0,0,1,.037.706Z" transform="translate(-1591 -12332.641)" fill="#fff"/>
  </g>
</svg>
